<?xml version="1.0" encoding="utf-8"?>
<svg width="488.00952px" height="555.88464px" viewBox="0 0 488.00952 555.88464" version="1.1" xmlns:xlink="http://www.w3.org/1999/xlink" xmlns="http://www.w3.org/2000/svg">
  <defs>
    <radialGradient gradientUnits="objectBoundingBox" cx="29.900017%" cy="-3.311605%" fx="29.900017%" fy="-3.311605%" r="143.917%" gradientTransform="translate(0.29900017,-0.03311605),scale(1,0.7360179),rotate(73.04685),translate(-0.29900017,0.03311605)" id="gradient_1">
      <stop offset="0%" stop-color="#FFFFFF" />
      <stop offset="100%" stop-color="#A40075" />
    </radialGradient>
    <path d="M367.802 175.212C351.223 180.913 333.135 179.707 311.908 170.359C320.343 152.216 333.055 141.82 350.284 137.423C367.597 133.008 389.844 134.012 417.078 138.953C400.459 157.031 384.443 169.488 367.802 175.212M381.437 378.944C401.812 325.865 402.379 252.592 354.295 204.401C406.223 201.744 439.579 157.85 466.9 124.103C414.517 111.925 346.329 94.4225 305.946 129.98C305.491 114.454 301.795 98.807 293.832 83.2553L262.909 93.4297C273.713 114.515 277.265 134.456 273.812 154.483C299.706 194.895 309.372 238.907 301.543 282.413C293.561 326.317 268.484 371.651 224.268 392.216L214.098 376.638C248.998 354.97 268.401 317.41 275.788 281.113C285.091 235.552 273.473 191.83 243.41 151.662C160.048 136.214 98.1161 198.97 74.2836 261.056C44.9925 337.362 74.0836 442.219 163.901 486.594C260.351 513.717 352.134 455.264 381.426 378.956L381.437 378.944Z" id="path_1" />
  </defs>
  <g id="Shape">
    <use xlink:href="#path_1" fill="none" stroke="#000000" stroke-width="16" />
    <use stroke="none" fill="url(#gradient_1)" xlink:href="#path_1" fill-rule="evenodd" />
  </g>
</svg>